<?xml version="1.0" standalone="no"?><!DOCTYPE svg PUBLIC "-//W3C//DTD SVG 1.1//EN" "http://www.w3.org/Graphics/SVG/1.1/DTD/svg11.dtd">

<svg t="1679136641848" class="icon" viewBox="0 0 1024 1024" version="1.1" xmlns="http://www.w3.org/2000/svg" p-id="8045" xmlns:xlink="http://www.w3.org/1999/xlink" width="32" height="32">
  <style>
    path {
      fill: white;
    }
  </style>
<path d="M913.598241 520.674061C897.129855 477.924519 787.397498 213.321067 596.901785 213.321067c-56.999389 0-105.124622 32.552795-143.7784 58.663294-17.534992 11.903316-39.379069 26.665133-48.210561 26.665133-18.900247 0-21.332107 0-21.332107-42.664213 0-14.335176 11.94598-32.040824 24.574587-50.770414 18.473604-27.433089 39.421733-58.449972 39.421734-98.554333C447.577038 18.132291 387.889803 0 298.25229 0c-67.452122 0-191.988961 79.18478-191.98896 191.988961 0 96.677108 41.853593 107.087176 59.857891 107.087175 1.877225 0 7.935544-0.682627 9.727441-1.194598a21.289443 21.289443 0 0 0 15.060467-15.145795C210.278682 208.841325 242.14885 149.324747 255.588077 149.324747c8.746164 0 11.562002 2.815838 12.628607 3.925108 9.044813 9.087477 8.874156 35.709947 8.746164 53.330267L276.920184 213.321067c0 10.111419-7.636894 31.571518-14.975139 52.34899C249.615087 300.441391 234.25597 343.66024 234.25597 383.977921c0 53.202274 38.355128 136.994789 169.888898 162.72131-0.426642 19.796195 2.005218 52.818296 20.692144 73.979747 8.063536 9.130142 18.302948 15.017803 30.035606 17.662984l71.8892 143.778399-193.311551 72.486499a21.97207 21.97207 0 0 0-7.59423 4.906385l-42.664214 42.664213a21.289443 21.289443 0 0 0 5.546348 34.174035l42.664213 21.332107a21.204114 21.204114 0 0 0 28.585023-9.51412 21.332107 21.332107 0 0 0-9.556783-28.627687l-16.169737-8.106201 18.473604-18.473604 158.497553-59.431249-58.748622 132.088405-35.795275 17.918969a21.332107 21.332107 0 1 0 19.113568 38.184471l33.192758-16.596379 33.107429 16.553715a21.417435 21.417435 0 0 0 19.02824-38.184471l-24.40393-12.201965 70.566609-158.796203 122.446292-45.949358a21.460099 21.460099 0 0 0 8.7035-33.875385l-110.073671-128.419283c18.302948-17.62032 25.854513-46.717314 28.457031-60.839168a357.227459 357.227459 0 0 0 52.562311-16.340394c22.142727-8.447514 39.677719-15.103132 76.838248-15.103131 87.205652 0 135.458878 37.587172 135.970848 37.97115a21.332107 21.332107 0 0 0 13.353899 4.693063h0.853284a21.332107 21.332107 0 0 0 17.193678-33.960714z m-267.376625 216.648876l-79.270109 29.736957-67.665443-135.373549a56.316762 56.316762 0 0 0 22.27072-23.465318c6.228975 4.35175 13.439227 7.551566 21.801413 9.087478l102.863419 120.014432z m138.701358-319.640287a21.332107 21.332107 0 0 1-29.736957 4.991713c-0.853284-0.597299-85.755069-60.028548-200.948446-60.028548-102.607433 0-149.324747 44.242789-149.324747 85.328426a21.332107 21.332107 0 0 1-42.664213 0c0-61.649788 60.071213-127.99264 191.98896-127.99264 129.357895 0 221.85391 65.190918 225.736354 68.006756 9.599448 6.826274 11.775323 20.137509 4.949049 29.694293z" p-id="8046"></path></svg>